<svg width="75" height="75" viewBox="0 0 75 75" fill="none" xmlns="http://www.w3.org/2000/svg">
<rect width="75" height="75" rx="17" fill="url(#paint0_linear_25_26)"/>
<path d="M35.9469 67V8H39.6926V67H35.9469ZM45.8821 27.4746C45.6994 25.6155 44.9152 24.1712 43.5296 23.1418C42.144 22.1124 40.2636 21.5977 37.8883 21.5977C36.2743 21.5977 34.9115 21.8281 33.8 22.2891C32.6885 22.7346 31.8358 23.3569 31.242 24.1559C30.6634 24.9548 30.3741 25.8613 30.3741 26.8754C30.3436 27.7204 30.5187 28.4579 30.8994 29.0879C31.2953 29.7178 31.8358 30.2633 32.521 30.7242C33.2062 31.1698 33.9979 31.5616 34.8963 31.8996C35.7947 32.2223 36.7539 32.4988 37.7741 32.7293L41.9765 33.7434C44.0169 34.2043 45.8897 34.8189 47.5951 35.5871C49.3004 36.3553 50.7774 37.3003 52.0259 38.4219C53.2745 39.5435 54.2414 40.8648 54.9265 42.3859C55.627 43.907 55.9848 45.6509 56 47.6176C55.9848 50.5061 55.2539 53.0106 53.8074 55.1309C52.3761 57.2358 50.3054 58.8721 47.5951 60.0398C44.9 61.1922 41.6492 61.7684 37.8426 61.7684C34.0665 61.7684 30.7776 61.1845 27.9759 60.0168C25.1895 58.8491 23.0121 57.1206 21.4438 54.8313C19.8907 52.5266 19.0761 49.6764 19 46.2809H28.5698C28.6763 47.8634 29.1255 49.1848 29.9173 50.2449C30.7243 51.2897 31.7977 52.081 33.1377 52.6188C34.4928 53.1412 36.023 53.4023 37.7284 53.4023C39.4033 53.4023 40.8574 53.1565 42.0907 52.6649C43.3393 52.1732 44.3062 51.4895 44.9914 50.6137C45.6765 49.7379 46.0191 48.7315 46.0191 47.5945C46.0191 46.5344 45.707 45.6432 45.0827 44.9211C44.4737 44.199 43.5753 43.5844 42.3877 43.0773C41.2152 42.5703 39.7763 42.1094 38.071 41.6945L32.9778 40.4039C29.0342 39.4359 25.9204 37.9225 23.6364 35.8637C21.3525 33.8048 20.2181 31.0315 20.2333 27.5438C20.2181 24.6859 20.9718 22.1892 22.4944 20.0535C24.0323 17.9178 26.1412 16.2508 28.821 15.0523C31.5008 13.8539 34.5461 13.2547 37.9568 13.2547C41.4284 13.2547 44.4584 13.8539 47.0469 15.0523C49.6506 16.2508 51.6757 17.9178 53.1222 20.0535C54.5687 22.1892 55.3148 24.6629 55.3605 27.4746H45.8821Z" fill="#00322E"/>
<defs>
<linearGradient id="paint0_linear_25_26" x1="37.5" y1="0" x2="37.5" y2="75" gradientUnits="userSpaceOnUse">
<stop stop-color="#01FEBE"/>
<stop offset="1" stop-color="#32BD9A"/>
</linearGradient>
</defs>
</svg>
